<?xml version="1.0" encoding="utf-8"?>
<!-- Generator: Adobe Illustrator 17.0.0, SVG Export Plug-In . SVG Version: 6.00 Build 0)  -->
<!DOCTYPE svg PUBLIC "-//W3C//DTD SVG 1.1//EN" "http://www.w3.org/Graphics/SVG/1.1/DTD/svg11.dtd">
<svg version="1.1" id="Layer_1" xmlns="http://www.w3.org/2000/svg" xmlns:xlink="http://www.w3.org/1999/xlink" x="0px" y="0px"
	 width="140px" height="140px" viewBox="0 0 140 140" enable-background="new 0 0 140 140" xml:space="preserve">
<g id="holder_14fc0fdb18c">
	<rect fill="#F7F7F7" width="140" height="140"/>
</g>
<g id="mTZWcx_1_" opacity="0.9">
	<g>
		<path fill="#E5E5E5" d="M104.12,90.806c-0.124,0.301-0.226,0.556-0.334,0.809c-0.04,0.094-0.056,0.245-0.166,0.247
			c-0.133,0.003-0.177,0.064-0.175,0.16c0.003,0.182,0.163-0.013,0.243,0.093c0.099,0.132,0.134-0.028,0.18-0.096
			c0.088-0.129,0.09-0.314,0.254-0.395c-0.18,0.757-0.521,1.44-0.962,2.075c-0.122,0.175-0.174,0.402-0.383,0.511
			c0.035-0.155,0.138-0.299,0.048-0.54c-0.27,0.394-0.595,0.7-0.639,1.234c0.204-0.15,0.214-0.392,0.424-0.444
			c-0.206,0.445-0.312,0.962-0.582,1.342c-0.459,0.646-0.71,1.446-1.371,1.948c-0.04,0.03-0.071,0.091-0.078,0.141
			c-0.071,0.536-0.522,0.802-0.807,1.222c-0.087-0.239,0.069-0.428-0.005-0.689c-0.162,0.224-0.345,0.382-0.405,0.578
			c-0.212,0.691-0.581,1.225-1.203,1.631c-0.466,0.303-0.847,0.736-1.264,1.113c-0.41,0.37-0.826,0.735-1.171,1.329
			c0.226-0.135,0.345-0.206,0.464-0.277c0.025,0.032,0.049,0.064,0.074,0.096c-1.698,1.004-2.742,2.766-4.458,3.752
			c-0.077-0.1,0.125-0.139-0.006-0.259c-0.53,0.507-1.001,1.088-1.663,1.441l0.009-0.005c-0.25-0.193-0.369,0.089-0.54,0.158
			c-1.099,0.446-2.188,0.913-3.288,1.357c-0.304,0.123-0.629,0.207-0.962,0.199c-0.216-0.005-0.397,0.059-0.581,0.163
			c-0.813,0.461-1.651,0.869-2.583,1.032c-0.357,0.062-0.724,0.09-1.054-0.146c0.22-0.183,0.528-0.077,0.793-0.323
			c-0.8-0.012-1.508,0.173-2.297,0.056c0.2,0.287,0.512,0.143,0.685,0.396c-0.506-0.112-0.981-0.092-1.456-0.095
			c-0.637-0.004-1.273,0.134-1.896,0.12c-1.259-0.028-2.512-0.226-3.779-0.218c-0.447,0.003-0.913,0.064-1.349-0.088
			c-0.495-0.173-0.988-0.202-1.499-0.096c-0.131,0.027-0.3,0.073-0.397-0.033c-0.297-0.322-0.633-0.204-0.978-0.138
			c-0.657,0.126-1.305-0.163-1.963-0.058c-0.187-0.359-0.509-0.184-0.734-0.126c-1.274,0.33-2.412,0.011-3.495-0.645
			c-0.246-0.149-0.619-0.251-0.699-0.463c-0.07-0.186-0.152-0.266-0.286-0.352c-0.196-0.126-0.398-0.244-0.592-0.374
			c-0.122-0.082-0.247-0.099-0.39-0.081c-1.223,0.149-2.451,0.21-3.682,0.247c-0.671,0.02-1.347,0.064-2.012,0.064
			c-0.528-0.001-1.058-0.148-1.595-0.003c-0.184,0.049-0.378,0.061-0.568,0.087c-1.55,0.213-3.111,0.322-4.662,0.53
			c-0.626,0.084-1.247,0.447-1.906,0.136c-0.029-0.014-0.08,0.011-0.118,0.025c-1.102,0.429-2.281,0.597-3.387,0.991
			c-0.41,0.146-0.975-0.016-1.24,0.524c0.608,0.478,1.374,0.653,2.07,1.029c-0.15,0.086-0.293-0.119-0.4,0.042
			c0.018,0.084,0.094,0.085,0.154,0.112c1.593,0.71,3.328,0.956,4.969,1.516c0.865,0.295,1.799,0.399,2.708,0.551
			c0.662,0.111,1.335,0.156,2.003,0.237c0.162,0.02,0.45,0.047,0.459,0.106c0.057,0.363,0.271,0.206,0.442,0.162
			c0.234-0.06,0.462-0.026,0.694,0.002c0.19,0.023,0.408,0.095,0.567,0.031c0.53-0.213,1.004,0.32,1.521,0.078
			c0.929,0.334,1.938-0.017,2.868,0.326c0.05,0.019,0.127-0.054,0.192-0.055c0.602-0.017,1.194,0.055,1.778,0.21
			c-0.415,0.032-0.83-0.123-1.247,0.021c0.555,0.165,1.111,0.388,1.674,0.407c1.053,0.035,2.103,0.183,3.166,0.086
			c0.316-0.029,0.61,0.215,0.984-0.044c0.211-0.147,0.62-0.011,0.995,0.089c-0.161,0.085-0.261,0.139-0.456,0.243
			c0.605,0.084,1.106,0.064,1.608,0.026c0.574-0.044,1.15-0.131,1.723-0.116c0.429,0.011,0.845,0.164,1.291,0.165
			c0.768,0.002,1.522-0.001,2.302,0.196c0.836,0.211,1.75,0.251,2.751,0.165c-0.942-0.167-1.799-0.13-2.621-0.357
			c0.659-0.019,1.316-0.019,1.974-0.019c0.948,0,1.895-0.002,2.843,0.004c0.077,0,0.194-0.065,0.233,0.076
			c0.048,0.172,0.047,0.164,0.179,0.16c0.833-0.032,1.67-0.298,2.498,0.066c0.122,0.054,0.297-0.001,0.445-0.02
			c0.837-0.11,1.66-0.273,2.523-0.212c1.986,0.142,3.938-0.212,5.889-0.532c1.71-0.281,3.421-0.536,5.163-0.446
			c0.147,0.008,0.299-0.03,0.444-0.062c0.645-0.142,1.289-0.29,2.003-0.451c-0.086,0.157-0.13,0.239-0.203,0.372
			c1.076-0.246,2.074-0.46,3.111-0.525c1.225-0.077,2.413-0.453,3.63-0.641c0.748-0.116,1.462-0.4,2.174-0.826
			c-0.322-0.206-0.579-0.425-0.875-0.55c-1.189-0.5-2.409-0.917-3.644-1.288c-0.017-0.005-0.03-0.022-0.06-0.044
			c0.122-0.01,0.227-0.019,0.344-0.029c-0.317-0.369-0.664-0.516-1.115-0.294c-0.161,0.079-0.279-0.061-0.401-0.144
			c-0.252-0.17-0.528-0.232-0.825-0.21c0.011,0.176,0.26,0.113,0.24,0.327c-0.308-0.085-0.61-0.092-0.889-0.222
			c-0.968-0.454-1.933-0.916-3.023-1.015c-0.134-0.012-0.4-0.083-0.347-0.202c0.135-0.305-0.195-0.149-0.222-0.309
			c0.199,0,0.39,0,0.581,0c0.01-0.042,0.02-0.084,0.03-0.126c-0.9-0.207-1.973,0.065-2.581-0.856
			c0.157-0.046,0.379,0.07,0.589-0.055c-0.395-0.337-1.083,0.012-1.328-0.668c1.095,0.093,2.146,0.18,3.196,0.273
			c0.071,0.006,0.174-0.019,0.207,0.076c0.062,0.18,0.056,0.188,0.149,0.197c0.164,0.017,0.424-0.034,0.475,0.048
			c0.218,0.348,0.563,0.24,0.857,0.314c0.36,0.091,0.839-0.098,1.073,0.163c0.295,0.329,0.639,0.288,0.957,0.321
			c0.874,0.09,1.571,0.692,2.418,0.804c0.69,0.091,1.291,0.395,1.92,0.638c0.028,0.011,0.043,0.055,0.067,0.088
			c-0.121,0.021-0.23,0.041-0.338,0.06c0.341,0.214,0.644,0.486,1.125,0.396c-0.149-0.142-0.328-0.098-0.419-0.348
			c0.517,0.273,1.066,0.154,1.513,0.458c0.538,0.366,1.157,0.557,1.693,0.982c0.72,0.571,1.041,1.217,0.545,1.988
			c0.089-0.3,0.113-0.586-0.164-0.83c-0.02,0.612-0.381,1.032-0.724,1.459c-0.197,0.246-0.473,0.179-0.745,0.225
			c-0.589,0.098-1.171,0.261-1.768,0.351c-0.449,0.068-0.911,0.138-1.35,0.45c0.187,0.024,0.309,0.04,0.43,0.056
			c0.004,0.034,0.007,0.068,0.01,0.102c-1.705-0.076-3.184,0.873-4.843,1.018c-0.011-0.111,0.145-0.106,0.092-0.231
			c-0.591,0.147-1.095,0.617-1.739,0.556c-0.551-0.052-1.095-0.014-1.642,0.004c-0.98,0.032-1.956,0.334-2.942,0.035
			c-0.067-0.02-0.159,0.027-0.236,0.052c-0.758,0.25-1.542,0.382-2.33,0.478c-0.279,0.034-0.586,0.111-0.864-0.085
			c0.151-0.216,0.452-0.15,0.618-0.407c-0.656,0.07-1.231,0.297-1.848,0.344c0.21,0.099,0.425,0.155,0.639,0.216
			c0.053,0.015,0.106,0.051,0.078,0.115c-0.012,0.027-0.078,0.059-0.098,0.048c-0.49-0.27-0.996-0.053-1.495-0.066
			c-0.58-0.014-1.093,0.29-1.667,0.275c-0.988-0.024-1.975-0.049-2.965-0.013c-0.473,0.017-0.963,0.101-1.43-0.061
			c-0.349-0.121-0.692-0.133-1.05-0.038c-0.207,0.055-0.405,0.085-0.603-0.11c-0.156-0.153-0.445-0.168-0.624-0.062
			c-0.309,0.182-0.613,0.131-0.908,0.06c-0.397-0.094-0.818-0.116-1.202-0.144c-0.709-0.052-1.436,0.149-2.155,0.244
			c-0.599,0.078-1.2,0.136-1.805,0.104c-0.071-0.004-0.19,0.03-0.168-0.102c0.007-0.041,0.106-0.067,0.237-0.141
			c-1.62,0.098-3.149-0.13-4.687-0.16c-0.342-0.007-0.594,0.075-0.812,0.434c0.569,0.127,1.148-0.145,1.681,0.125
			c-0.384,0.135-0.764,0.117-1.146,0.067c-0.802-0.104-1.602-0.22-2.406-0.314c-0.227-0.026-0.509,0.093-0.68-0.005
			c-0.288-0.164-0.523-0.078-0.782-0.012c-0.252,0.064-1.287-0.116-1.494-0.267c0.769-0.069,1.534-0.197,2.312-0.048
			c-0.173-0.119-0.342-0.244-0.53-0.286c-0.21-0.047-0.452,0.031-0.653-0.032c-0.516-0.159-0.969-0.293-1.551-0.07
			c-0.726,0.277-1.543,0.064-2.32,0.092c-0.343,0.012-0.681,0.018-1.023-0.05c-0.899-0.177-1.802-0.335-2.709-0.501
			c0.186-0.121,0.445-0.028,0.668-0.189c-0.43-0.095-0.86-0.015-1.272-0.341c0.5-0.009,0.959-0.11,1.286,0.205
			c0.362,0.348,0.782,0.424,1.213,0.358c0.631-0.097,1.26-0.14,2.003-0.09c-0.219-0.139-0.184-0.395-0.417-0.358
			c-1.112,0.181-2.184-0.103-3.264-0.277c-0.967-0.156-1.908-0.191-2.773,0.38c-0.102,0.067-0.237,0.062-0.359,0.015
			c-0.511-0.198-0.99-0.46-1.557-0.53c-0.459-0.056-0.97-0.158-1.334-0.415c-0.464-0.328-0.863-0.471-1.454-0.442
			c-1.2,0.059-2.409-0.064-3.585-0.343c-0.242-0.057-0.591-0.164-0.628-0.462c-0.023-0.188-0.082-0.233-0.214-0.267
			c-0.358-0.091-0.725-0.153-1.077-0.263c-0.899-0.281-1.669-0.842-2.536-1.19c-0.733-0.294-1.128-0.799-1.183-1.592
			c-0.018-0.258-0.02-0.475,0.148-0.694c0.407-0.53,0.73-1.113,1.574-1.053c0.431,0.031,0.832-0.275,1.233-0.453
			c-0.038-0.124-0.182-0.038-0.196-0.158c0.115-0.072,0.239-0.132,0.377-0.116c0.899,0.109,1.723-0.406,2.642-0.278
			c0.44,0.061,0.917-0.139,1.465-0.237c-0.3,0.244-0.629,0.173-0.912,0.425c2.464-0.088,4.822-0.382,7.189-0.776
			c-0.088-0.14-0.312-0.038-0.376-0.25c1.079-0.171,2.13-0.31,3.197-0.258c-0.798,0.11-1.566,0.305-2.272,0.721
			c0.475,0.096,0.938,0.084,1.403-0.044c1.02-0.28,2.053-0.478,3.117-0.482c0.237-0.001,0.473-0.035,0.831-0.063
			c-0.746-0.55-1.386-1.038-2.046-1.497c-0.242-0.168-0.582,0.012-0.574,0.268c-0.829-0.631-1.428-1.527-2.363-2.031
			c-0.021-0.011-0.038-0.042-0.044-0.067c-0.082-0.38-0.431-0.447-0.698-0.625c-0.469-0.311-0.792-0.767-1.108-1.226
			c0.75,0.469,1.469,0.967,2.072,1.616c-0.156-0.509-0.592-0.779-0.901-1.153c-0.354-0.431-0.565-0.942-1.203-1.126
			c-0.404-0.117-0.781-0.463-1.078-0.79c-0.772-0.849-1.736-1.532-2.291-2.571c-0.185-0.347-0.521-0.437-0.824-0.421
			c-0.257,0.013-0.492-0.144-0.763-0.028c-0.173,0.074-0.23-0.134-0.264-0.281c0.094-0.083,0.242,0.032,0.34-0.108
			c-0.145-0.032-0.279-0.09-0.41-0.085c-0.939,0.036-1.742-0.374-2.564-0.743c-0.604-0.271-1.162-0.583-1.667-1.025
			c-0.192-0.168-0.194-0.463-0.479-0.546c-0.343-0.1-0.666-0.274-0.927-0.517c-0.35-0.325-0.776-0.55-1.141-0.858
			c-0.406-0.343-0.949-0.544-1.249-1.041c-0.235-0.39-0.69-0.48-1.01-0.752c-0.06-0.05-0.223-0.134-0.136-0.188
			c0.315-0.194,0-0.259-0.067-0.322c-0.304-0.29-0.72-0.505-0.922-0.849c-0.232-0.395-0.57-0.655-0.9-0.892
			c-0.319-0.229-0.433-0.67-0.847-0.763c-0.161-0.036-0.244-0.118-0.355-0.241c-0.127-0.14-0.305-0.273-0.47-0.394
			c-0.312-0.228-0.683-0.431-0.911-0.912c0.213,0.116,0.261,0.297,0.472,0.295c-0.157-0.741-0.683-1.144-1.252-1.515
			c-0.117-0.076-0.283-0.285-0.163-0.322c0.424-0.135,0.077-0.299,0.009-0.333c-0.545-0.27-0.664-0.825-0.906-1.296
			c-0.083-0.162-0.107-0.314-0.082-0.525c0.038-0.313-0.017-0.671-0.199-1.021c-0.04,0.372,0.094,0.692,0.011,1.094
			c-0.218-0.604-0.451-1.12-0.496-1.706c-0.025-0.324,0.303-0.521,0.218-0.865c-0.068-0.272-0.054-0.564,0.277-0.734
			c0.135-0.07,0.101-0.271,0.122-0.42c0.034-0.243,0.043-0.512,0.246-0.676c0.674-0.541,1.296-1.148,2.02-1.624
			c0.538-0.353,1.114-0.648,1.779-0.626c0.276,0.01,0.525,0.005,0.771-0.13c0.184-0.101,0.19-0.09,0.328,0.113
			c0.037,0.054,0.095,0.051,0.138,0.022c0.355-0.236,0.742-0.116,1.124-0.134c0.736-0.034,1.472,0.152,2.206-0.014
			c0.05-0.011,0.111-0.004,0.16,0.014c0.567,0.213,1.159,0.314,1.755,0.387c0.162,0.02,0.252,0.216,0.434,0.143
			c-0.145,0.69,0.558-0.02,0.606,0.363c0.001,0.008,0.093,0.004,0.118-0.066c0.098-0.276,0.134-0.289,0.356-0.069
			c0.219,0.216,0.445,0.388,0.761,0.453c0.269,0.055,0.168,0.276,0.109,0.441c-0.016,0.046-0.133,0.057-0.082,0.147
			c0.046,0.082,0.134,0.117,0.212,0.07c0.305-0.186,0.415,0.085,0.457,0.254c0.064,0.257,0.23,0.377,0.415,0.515
			c0.343,0.254,0.728,0.382,1.151,0.418c0.024-0.167-0.284-0.279-0.119-0.428c0.167-0.151,0.374-0.036,0.57,0.051
			c0.545,0.241,0.975,0.664,1.509,0.918c0.012,0.006,0.028,0.011,0.034,0.022c0.244,0.436,0.704,0.382,1.095,0.489
			c0.205,0.056,0.579-0.091,0.478,0.369c-0.013,0.058,0.046,0.066,0.082,0.061c0.53-0.073,0.971,0.266,1.474,0.32
			c0.148,0.016,0.392,0.028,0.422,0.107c0.159,0.417,0.551,0.272,0.829,0.383c0.139,0.056,0.16,0.025,0.181-0.179
			c0.006-0.055,0.03-0.076,0.061-0.083c0.032-0.008,0.079,0.003,0.103,0.025c0.071,0.061-0.017,0.208,0.134,0.267
			c0.048-0.824-0.414-1.226-1.113-1.452c0.286-0.206,0.572-0.354,0.879-0.128c0.192,0.142,0.339,0.105,0.511-0.01
			c0.051-0.034,0.17-0.061,0.183-0.042c0.204,0.313,0.483,0.029,0.719,0.095c0.233,0.066,0.468,0.268,0.723,0.047
			c0.093,0.177,0.553-0.204,0.446,0.302c-0.027,0.131,0.156,0.148,0.25,0.14c0.092-0.008,0.192-0.093,0.06-0.193
			c-0.152-0.115,0.01-0.11,0.049-0.134c0.384-0.237,0.823-0.156,1.24-0.206c0.089-0.011,0.096,0.061,0.096,0.139
			c0,0.086-0.147,0.189-0.016,0.248c0.147,0.066,0.204-0.079,0.275-0.182c0.055-0.081,0.142-0.226,0.243-0.107
			c0.229,0.269,0.546,0.206,0.826,0.249c0.265,0.041,0.353-0.106,0.145-0.414c0.392,0.234,0.709,0.097,0.947-0.105
			c0.335-0.284,0.829-0.037,1.122-0.397c0.034-0.042,0.132,0.053,0.175,0.052c0.689-0.009,1.387,0.33,2.07-0.061
			c0.145-0.083,0.342-0.165,0.504-0.026c0.191,0.163-0.167,0.251-0.058,0.466c0.096-0.234,0.644-0.002,0.411-0.518
			c0.317,0.017,0.64-0.246,0.851-0.213c0.553,0.086,1.12-0.082,1.664,0.131c0.196,0.076,0.455-0.037,0.643,0.144
			c0.18-0.282,0.433-0.063,0.627-0.045c0.095,0.009,0.186,0.05,0.299,0.008c0.421-0.157,0.727-0.589,1.317-0.342
			c0.28,0.117,0.724-0.008,1.092-0.032c0.341-0.023,0.536-0.157,0.437-0.565c-0.157,0.034-0.313,0.185-0.474-0.02
			c0.707-0.089,1.428,0.026,2.132-0.15c-0.186,0.266-0.424,0.39-0.743,0.398c0.174,0.288,0.483,0.185,0.698,0.316
			c0.18,0.11,0.045-0.224,0.205-0.261c0.088-0.02,0.161-0.101,0.245-0.145c0.537-0.28,1.095-0.306,1.695-0.138
			c-0.047,0.057-0.094,0.139-0.111,0.134c-0.412-0.141-0.603,0.295-0.936,0.354c-0.097,0.017-0.146,0.078-0.083,0.176
			c0.045,0.071,0.061,0.221,0.195,0.126c0.326-0.229,0.691-0.118,1.041-0.136c0.407-0.021,0.859-0.431,0.895-0.788
			c0.191-0.011,0.31,0.172,0.52,0.163c0.259-0.011,0.506,0.025,0.667,0.292c0.04,0.066,0.2,0.27,0.321,0.058
			c0.222-0.389,0.657-0.416,0.994-0.6c0.208-0.114,0.498-0.14,0.522,0.257c0.011,0.172,0.152,0.153,0.243,0.106
			c0.134-0.069,0.27-0.047,0.401-0.046c0.615,0.005,1.231,0.089,1.839-0.075c0.065-0.018,0.098,0.023,0.079,0.043
			c-0.153,0.157-0.015,0.185,0.091,0.196c0.113,0.012,0.29,0.044,0.305-0.111c0.027-0.27,0.126-0.119,0.229-0.068
			c0.243,0.119,1.011-0.083,1.056-0.312c0.057-0.291,0.303-0.511,0.329-0.761c0.052-0.503,0.277-0.263,0.472-0.155
			c0.123-0.184-0.033-0.275-0.075-0.395c-0.021-0.061-0.077-0.161-0.002-0.18c0.318-0.082,0.321-0.392,0.434-0.604
			c0.122-0.229,0.068-0.441-0.372-0.328c0.306-0.285,0.272-0.586,0.105-0.767c-0.313-0.337,0.068-0.861-0.36-1.14
			c-0.021-0.013,0.035-0.124,0.032-0.187c-0.03-0.67,0.284-1.375-0.216-2.001c-0.096-0.12-0.163-0.303-0.058-0.463
			c0.124-0.19,0.258,0.118,0.415-0.003c-0.101-0.163-0.202-0.327-0.315-0.509c-0.079,0.102-0.145,0.185-0.245,0.313
			c0.016-0.238,0.004-0.449-0.121-0.579c-0.277-0.286-0.246-0.649-0.326-0.99c-0.116-0.498-0.288-0.984-0.162-1.507
			c0.015-0.062-0.049-0.084-0.096-0.115c-0.205-0.133-0.204-0.411-0.155-0.539c0.054-0.141,0.016-0.168-0.049-0.245
			c-0.305-0.361-0.828-0.534-0.801-1.179c0.013-0.315-0.27-0.645-0.43-0.962c-0.196-0.387-0.221-0.389-0.645-0.158
			c0.073,0.129,0.291,0.194,0.14,0.427c-0.324-0.63-0.544-1.311-0.94-1.908c0.319,0.087,0.541,0.248,0.643,0.55
			c0.177-0.375,0.053-0.715-0.271-0.877c-0.177-0.088-0.326-0.227-0.48-0.36c-0.444-0.383-0.398-0.934-0.62-1.455
			c0.164,0.084,0.365,0.154,0.359,0.189c-0.082,0.493,0.499,0.403,0.615,0.718c0.044,0.12,0.137,0.028,0.197-0.016
			c0.056-0.041,0.105-0.096,0.019-0.159c-0.342-0.249-0.379-0.652-0.508-1.008c-0.086-0.238-0.226-0.349-0.494-0.413
			c-0.239-0.057-0.899,0.092-0.497-0.576c0.012-0.02-0.027-0.072-0.043-0.11c-0.099-0.235-0.136-0.453,0.064-0.674
			c0.04-0.045,0.245-0.228,0.025-0.327c-0.389-0.174-0.534-0.573-0.814-0.846c-0.127-0.124-0.224-0.389-0.044-0.465
			c0.436-0.183,0.156-0.44,0.141-0.68c-0.033-0.528-0.223-1.034-0.219-1.567c0.002-0.165-0.237-0.34,0.08-0.486
			c0.126-0.058,0.007-0.352-0.049-0.357c-0.394-0.04-0.074-0.24-0.108-0.347c-0.118-0.366,0.234-0.65,0.132-0.999
			c-0.004-0.015,0.026-0.04,0.044-0.063c0.054,0.07,0.107,0.139,0.177,0.229c0.343-0.595,0.267-1.221,0.246-1.828
			c-0.006-0.179,0.249-0.554-0.241-0.554c-0.012,0-0.037-0.071-0.033-0.107c0.037-0.345,0.005-0.71,0.292-1.051
			c-0.041,0.333-0.038,0.605,0.147,0.84c0.048,0.06,0.058,0.17,0.165,0.149c0.093-0.018,0.1-0.12,0.139-0.19
			c0.063-0.111-0.002-0.209-0.019-0.316c-0.065-0.41-0.116-0.849,0.162-1.184c0.25-0.302,0.488-0.541,0.151-0.921
			c-0.03-0.034-0.087-0.238,0.1-0.214c0.081,0.01,0.257-0.05,0.236,0.172c-0.013,0.146-0.054,0.33,0.111,0.438
			c0.117-0.041,0.178-0.154,0.169-0.227c-0.074-0.614,0.395-1.047,0.514-1.594c0.064-0.295,0.14-0.585,0.282-0.854
			c0.02-0.037,0.037-0.041,0.064,0.004c0.074,0.086-0.107,0.213,0.021,0.315c0.163-0.179,0.289-0.441,0.474-0.494
			c0.291-0.083,0.405-0.181,0.339-0.478c-0.02-0.09,0.072-0.192,0.136-0.094c0.136,0.209,0.173,0.049,0.234-0.036
			c0.33-0.455,0.651-0.917,0.992-1.364c0.074-0.097,0.145-0.343,0.299-0.219c0.15,0.121-0.09,0.209-0.155,0.311
			c-0.107,0.168-0.239,0.321-0.253,0.542c0.36-0.044,0.566-0.191,0.554-0.574c-0.006-0.173,0.042-0.354,0.096-0.522
			c0.064-0.2,0.2-0.409,0.43-0.323c0.332,0.125,0.406,0.123,0.554-0.21c0.134-0.3,0.329-0.416,0.638-0.192
			c-0.166,0.253-0.269,0.617-0.568,0.624c-0.302,0.007-0.374,0.208-0.542,0.343c-0.194,0.157-0.119,0.454-0.331,0.588
			c-0.542,0.342-0.934,0.846-1.39,1.28c-0.191,0.182-0.335,0.437-0.363,0.669c-0.034,0.291-0.153,0.334-0.376,0.334
			c-0.08-0.132,0.124-0.234-0.05-0.42c-0.105,0.462-0.499,0.782-0.37,1.273c0.042,0.162-0.06,0.226-0.124,0.32
			c-0.255,0.379-0.436,0.792-0.562,1.228c-0.163,0.564-0.292,1.14-0.595,1.652c-0.247,0.418-0.396,0.858-0.334,1.352
			c0.008,0.066-0.012,0.137-0.03,0.203c-0.133,0.503-0.089,1.044-0.082,1.531c0.006,0.501,0.16,1.023,0.062,1.547
			c-0.077,0.411,0.158,0.741,0.257,1.106c0.028,0.102,0.118,0.216,0.026,0.307c-0.185,0.182-0.209,0.178-0.142,0.384
			c0.222,0.682,0.21,1.432,0.531,2.074c0.186,0.372,0.19,0.84,0.522,1.124c0.333,0.285,0.424,0.715,0.682,1.05
			c0.176,0.229,0.485,0.482,0.472,0.865c-0.157-0.044-0.119-0.257-0.349-0.287c-0.073,0.897,0.662,1.322,1.098,1.88
			c-0.093,0.148-0.257-0.047-0.291,0.099c-0.016,0.068,0.071,0.169,0.126,0.243c0.057,0.076,0.121,0.157,0.201,0.204
			c0.509,0.302,0.455,0.929,0.779,1.336c0.02,0.026,0.023,0.085,0.008,0.117c-0.171,0.383,0.102,0.653,0.216,0.964
			c0.012-0.295-0.144-0.567-0.083-0.94c0.235,0.448,0.442,0.83,0.635,1.22c0.054,0.108,0.136,0.292,0.091,0.344
			c-0.235,0.275,0.047,0.431,0.118,0.629c0.02,0.057,0.107,0.101,0.056,0.173c-0.23,0.323,0.041,0.495,0.207,0.697
			c0.078,0.095,0.136,0.175,0.137,0.32c0.002,0.53,0.171,1.023,0.41,1.491c0.354,0.691,0.749,1.369,0.705,2.186
			c-0.008,0.151,0.016,0.229,0.191,0.224c0.285-0.008,0.591-0.105,0.818,0.188c0.034,0.044,0.182,0.013,0.273-0.002
			c1.043-0.171,2.081-0.048,3.118,0.053c0.705,0.068,1.378,0.304,2.087,0.37c1.134,0.106,2.278,0.069,3.405,0.247
			c0.032,0.005,0.06,0.037,0.086,0.054c-0.04,0.127-0.23,0.008-0.239,0.183c1.631,0.336,3.312,0.388,4.897,0.965
			c0.85,0.309,1.774,0.377,2.628,0.713c0.66,0.26,1.375,0.376,2.007,0.72c0.094,0.051,0.226,0.107,0.253,0.19
			c0.086,0.255,0.071,0.293,0.224,0.287c0.288-0.012,0.459,0.17,0.632,0.338c0.256,0.248,0.472,0.537,0.735,0.777
			c0.236,0.215,0.305,0.464,0.316,0.767c0.018,0.471-0.225,0.869-0.319,1.304c-0.096,0.443-0.288,0.748-0.732,0.864
			c-1.982,0.521-3.964,1.038-5.946,1.56c-0.405,0.107-0.833,0.151-1.189,0.431c0.135,0,0.27,0,0.406,0
			c-0.482,0.226-0.966,0.411-1.457,0.578c-0.337,0.114-0.68,0.212-1.036,0.253c-0.726,0.084-1.448,0.163-2.167,0.333
			c-0.995,0.234-1.913,0.71-2.933,0.856c-1.899,0.272-3.796,0.564-5.691,0.864c-0.875,0.138-1.788,0.08-2.614,0.489
			c-0.071,0.035-0.139,0.047-0.225-0.014c-0.259-0.185-0.548-0.077-0.781,0.026c-0.706,0.313-1.053,0.364-1.88,0.163
			c0.362-0.182,0.796-0.092,1.136-0.335c-1.138,0.178-2.279,0.309-3.42,0.438c-0.548,0.062-1.051,0.349-1.587,0.375
			c-1.769,0.085-3.541,0.145-5.312,0.147c-1.656,0.002-3.312,0.105-4.97-0.127c-1.413-0.198-2.866-0.142-4.212-0.727
			c-0.036-0.016-0.081-0.015-0.122-0.013c-0.773,0.018-1.527-0.142-2.29-0.226c-1.628-0.179-3.195-0.634-4.786-0.982
			c-0.046-0.01-0.168,0.011-0.132-0.13c0.045-0.177,0.009-0.221-0.103-0.162c-0.557,0.294-1.177,0.066-1.518-0.205
			c-0.41-0.326-0.825-0.351-1.249-0.463c-1.799-0.475-3.45-1.273-5.016-2.263c-0.033-0.021-0.053-0.066-0.086-0.086
			c-0.624-0.386-1.248-0.769-1.884-1.16c-0.026,0.083-0.04,0.109-0.042,0.135c-0.111,1.669,0.218,3.31,0.395,4.953
			c0.138,1.278,0.629,2.513,1.119,3.716c0.273,0.67,0.63,1.307,0.948,1.959c0.03,0.061,0.048,0.127,0.072,0.19
			c-0.379,0.112-0.041,0.333-0.003,0.357c0.352,0.22,0.466,0.604,0.678,0.918c0.084,0.124,0.141,0.297,0.258,0.364
			c0.547,0.315,0.482,1.028,0.979,1.418c0.263,0.206,0.391,0.664,0.681,0.946c0.314,0.306,0.658,0.6,0.84,1.005
			c0.135,0.3,0.346,0.499,0.586,0.708c0.465,0.406,0.836,0.899,1.164,1.424c-0.277-0.291-0.553-0.582-0.83-0.872
			c0.321,0.646,0.675,1.263,1.159,1.79c0.194,0.212,0.414,0.402,0.631,0.591c0.686,0.598,1.245,1.356,2.125,1.714
			c0.058,0.023,0.013,0.057,0.018,0.08c0.082,0.331,0.22,0.426,0.566,0.428c0.059,0,0.125,0.048,0.174,0.091
			c0.285,0.251,0.566,0.506,0.853,0.764c-0.161,0.084-0.295-0.099-0.465,0.006c0.166,0.141,0.32,0.276,0.478,0.405
			c1.037,0.847,2.321,1.318,3.306,2.268c0.754,0.727,1.829,1.049,2.553,1.875c0.33,0.377,0.858,0.579,1.295,0.862
			c0.076,0.049,0.146,0.096,0.255,0.033c-0.433-0.31-0.843-0.604-1.32-0.946c0.244,0.008,0.344,0.113,0.449,0.188
			c0.618,0.444,1.297,0.573,2.053,0.528c0.737-0.044,1.481,0.012,2.221,0.03c0.074,0.002,0.272,0,0.19,0.09
			c-0.221,0.242-0.004,0.15,0.092,0.153c1.04,0.03,2.098-0.261,3.118,0.169c0.069,0.029,0.163,0.008,0.245,0.001
			c1.214-0.108,2.419-0.175,3.645-0.035c1.898,0.216,3.808,0.102,5.712,0.019c0.32-0.014,0.622-0.067,0.923-0.171
			c1.653-0.569,3.272-1.241,4.959-1.714c0.103-0.029,0.2-0.087,0.291-0.145c0.588-0.379,1.172-0.764,1.762-1.14
			c0.069-0.044,0.21-0.219,0.238-0.045c0.046,0.29,0.162,0.153,0.256,0.078c0.891-0.711,1.861-1.307,2.815-1.924
			c0.87-0.563,1.557-1.349,2.381-1.972c0.332-0.251,0.667-0.557,0.949-0.891c1.378-1.628,2.705-3.296,3.956-5.025
			c1.046-1.446,1.853-3.025,2.62-4.628c0.02-0.042,0.034-0.043,0.049-0.001c0.046,0.15-0.151,0.287-0.034,0.444
			c0.137-0.062,0.089-0.257,0.199-0.292c0.364-0.118,0.364-0.421,0.329-0.691c-0.037-0.285,0.015-0.491,0.213-0.703
			c0.235-0.253,0.315-0.585,0.311-0.941c-0.086,0.114-0.172,0.229-0.32,0.425c0.079-0.48,0.191-0.843,0.386-1.17
			c0.657-1.1,1.225-2.233,1.437-3.514c0.017-0.102,0.104-0.286,0.163-0.236c0.323,0.272,0.143-0.192,0.276-0.176
			c0.101,0.211-0.072,0.439,0.034,0.711c0.254-0.399,0.302-0.778,0.284-1.179c-0.011-0.251,0.03-0.485,0.106-0.742
			c0.162-0.547,0.637-0.921,0.709-1.527c0.109,0.369-0.148,0.715,0.057,1.089c0.158-0.327,0.16-0.633,0.211-0.927
			c0.088-0.516,0.082-0.517,0.429-0.642c-0.062,1.35-0.18,2.687-0.424,4.035c-0.088-0.083-0.011-0.201-0.123-0.228
			c-0.09,0.1-0.095,0.225-0.113,0.348c-0.027,0.19,0.003,0.445-0.107,0.555c-0.485,0.483-0.418,1.119-0.533,1.703
			c-0.043,0.218-0.131,0.415-0.197,0.622c-0.05,0.159-0.249-0.053-0.298,0.166c-0.216,0.97-0.455,1.935-1.125,2.72
			c-0.122,0.143-0.127,0.359-0.273,0.493C104.085,91.38,104.301,91.131,104.12,90.806z M44.944,95.094
			c0.035,0.14,0.161,0.102,0.27,0.041c0.151-0.084,0.3-0.226,0.489-0.123c0.105,0.057-0.056,0.289-0.217,0.307
			c-0.082,0.009-0.164,0.017-0.246,0.027c-0.04,0.005-0.08,0.016-0.19,0.038c0.36,0.421,0.904,0.218,1.29,0.497
			c0.364,0.262,0.903,0.138,1.364,0.227c-0.059,0.151-0.228,0-0.286,0.162c0.214,0.196,0.634,0.146,0.748,0.528
			c0.024,0.08,0.167,0.019,0.25-0.045c0.086-0.067,0.135-0.119,0.057-0.232c-0.155-0.223-0.295-0.456-0.395-0.739
			c0.141,0.103,0.282,0.207,0.517,0.38c-0.278-0.506-0.637-0.853-0.697-1.346c0.378,0.413,0.811,0.777,0.803,1.425
			c-0.006,0.544,0.377,0.824,0.94,0.714c-0.667-1.003-1.307-2.004-1.993-2.973c-0.255-0.359-0.769-0.456-1.022-0.871
			c-0.044-0.071-0.387-0.083-0.474-0.269c-0.153-0.329-0.313-0.707-0.339-1.025c-0.023-0.283-0.087-0.528-0.206-0.744
			c-0.297-0.537-0.327-1.147-0.536-1.705c-0.069-0.184,0.068-0.333,0.05-0.519c-0.046-0.461-0.126-0.859-0.421-1.273
			c-0.452-0.633-0.58-1.439-0.845-2.173c-0.163-0.45-0.261-0.915-0.37-1.38c-0.096-0.411-0.192-0.883,0.015-1.202
			c0.595-0.916,0.003-1.866,0.187-2.778c0.046-0.229-0.056-0.459,0.1-0.703c0.082-0.128-0.155-0.366-0.338-0.383
			c-0.456-0.042-0.788-0.414-1.251-0.429c-0.095-0.003-0.337-0.035-0.141-0.282c0.089-0.112-0.101-0.188-0.189-0.185
			c-0.133,0.004-0.184,0.053-0.052,0.193c0.104,0.111-0.065,0.091-0.124,0.109c-0.371,0.114-0.735-0.03-1.102-0.043
			c-0.174-0.006-0.172-0.051-0.05-0.406c-0.025-0.011-0.066-0.035-0.072-0.028c-0.278,0.312-0.54,0.075-0.807-0.02
			c-0.141-0.05-0.28-0.122-0.426-0.142c-0.215-0.028-0.26,0.05-0.208,0.356c-0.331-0.233-0.604-0.068-0.882,0.078
			c-0.278,0.146-0.278,0.142-0.596,0.042c-0.03-0.009-0.095,0.006-0.103,0.026c-0.153,0.376-0.443,0.221-0.692,0.172
			c-0.375-0.073-0.749,0.136-1.137-0.026c-0.087-0.037-0.287,0.209-0.441,0.316c-0.124,0.086-0.269,0.192-0.414,0.133
			c-0.203-0.083,0.002-0.273-0.088-0.46c-0.059,0.221-0.52,0.216-0.238,0.571c-0.515,0.427-1,0.931-1.436,1.468
			c-0.137,0.169-0.166,0.507-0.235,0.756c-0.123,0.443,0.093,0.655,0.293,0.947c0.124,0.181,0.307,0.289,0.27,0.65
			c-0.038,0.38,0.293,0.861,0.594,1.221c0.107,0.129,0.294,0.024,0.407-0.049c0.117-0.075,0.031-0.151-0.067-0.208
			c-0.072-0.042-0.118-0.152-0.048-0.203c0.1-0.073,0.177,0.024,0.221,0.11c0.158,0.308,0.202,0.673,0.457,0.933
			c0.152,0.155,0.439,0.213,0.364,0.545c-0.246-0.068-0.482-0.142-0.622-0.396c-0.129,0.371,0.037,0.626,0.375,0.729
			c0.432,0.132,0.834,0.338,1.073,0.758c0.102,0.178,0.205,0.356,0.309,0.536c-0.074,0.105-0.175-0.052-0.255,0.018
			c-0.009,0.023-0.032,0.055-0.025,0.07c0.052,0.099,0.212,0.157,0.118,0.309c-0.037,0.058-0.092,0.037-0.144,0.01
			c-0.153-0.078-0.19-0.189-0.098-0.336c0.109-0.176,0.035-0.302-0.134-0.349c-0.198-0.055-0.401-0.087-0.576-0.207
			c-0.11-0.076-0.131,0.033-0.178,0.092c-0.063,0.08-0.022,0.132,0.05,0.153c0.321,0.093,0.455,0.38,0.643,0.611
			c0.319,0.392,0.59,0.463,1.073,0.231c0.193-0.093,0.233-0.015,0.255,0.139c0.054,0.379,0.478,0.643,0.324,1.095
			c-0.049,0.145,0.098,0.1,0.19,0.112c0.382,0.047,0.728,0.212,1.083,0.348c0.178,0.068,0.259,0.241,0.168,0.353
			c-0.202,0.25-0.077,0.311,0.131,0.437c0.323,0.196,0.506,0.549,0.872,0.745c0.168,0.09,0.351,0.347,0.586,0.463
			c0.091,0.045,0.075,0.051,0.015,0.149c-0.135,0.223,0.149,0.328,0.234,0.285c0.441-0.225,0.31,0.476,0.648,0.374
			c-0.091,0.122-0.057,0.212,0.066,0.288c0.105,0.065,0.203,0.139,0.362,0.25c-0.301-0.025-0.454,0.018-0.241,0.288
			c0.41,0.519,1.016,0.729,1.573,1.018c0.023,0.012,0.055,0.024,0.078,0.018c0.516-0.141,0.618-0.109,0.905,0.289
			c-0.226-0.076-0.455-0.077-0.687-0.036c-0.08,0.015-0.182,0.009-0.204,0.102c-0.026,0.11,0.075,0.163,0.149,0.221
			c0.091,0.072,0.196,0.085,0.309,0.073c0.294-0.031,0.541,0.164,0.828,0.173C44.62,94.734,44.878,94.832,44.944,95.094z
			 M91.263,80.537c-0.46,0.017-0.906-0.086-1.309,0.164c-0.124,0.077-0.229,0.074-0.348,0.049c-0.54-0.115-1.087-0.165-1.637-0.134
			c-0.662,0.037-1.33-0.012-1.945-0.211c-0.896-0.288-1.789,0.028-2.658-0.111c-0.559-0.089-1.086,0.23-1.594,0.043
			c-0.615-0.227-1.191-0.107-1.786,0.006c-0.097,0.018-0.258,0.087-0.172-0.163c0.042-0.123-0.141-0.077-0.22-0.077
			c-0.394,0.002-0.801,0.086-1.177,0.009c-0.641-0.132-1.241,0.099-1.855,0.094c-0.343-0.003-0.61-0.004-0.915,0.198
			c-0.27,0.179-0.654,0.109-0.987,0.198c-0.256,0.069-0.564,0.173-0.881,0.145c0.076-0.079,0.235-0.036,0.228-0.17
			c-0.005-0.096-0.112-0.103-0.183-0.133c-0.379-0.163-0.761-0.063-1.12,0.044c-0.221,0.066-0.526,0.012-0.646,0.308
			c-0.093-0.047-0.367,0.233-0.272-0.149c0.033-0.133-0.05-0.135-0.135-0.129c-0.067,0.005-0.153,0.004-0.196,0.044
			c-0.437,0.4-0.999,0.193-1.492,0.317c-0.153,0.038-0.277-0.063-0.415-0.118c-0.244-0.097-0.519-0.095-0.833-0.058
			c0.274,0.18,0.586,0.076,0.823,0.272c-0.444,0.07-0.858,0.158-1.277,0.19c-0.128,0.01-0.4,0.192-0.423-0.174
			c-0.006-0.09-0.107,0.016-0.167,0.019c-0.164,0.009-0.405,0.15-0.454,0.112c-0.543-0.426-1.05,0.191-1.621,0.012
			c-0.543-0.17-1.117,0.173-1.665,0.343c-0.537,0.167-1.077,0.289-1.641,0.119c-0.173-0.052-0.308,0.1-0.465,0.125
			c-0.111,0.017-0.329,0.338-0.351-0.086c-0.004-0.069-0.115-0.044-0.179-0.023c-0.666,0.22-1.363,0.145-2.045,0.221
			c-0.108,0.012-0.232-0.03-0.324,0.01c-0.696,0.299-1.421,0.14-2.135,0.156c-0.219,0.005-0.436,0.017-0.655,0.042
			c-0.179,0.021-0.407,0.044-0.497-0.221c-0.019-0.056-0.169-0.219-0.202-0.126c-0.113,0.322-0.357,0.111-0.539,0.139
			c0.159,0.452,0.159,0.452-0.178,0.539c0.287,0.275,0.635,0.362,0.963,0.24c-0.054-0.128-0.242-0.047-0.306-0.221
			c1.378-0.009,2.686,0.384,4.053,0.494c-0.104,0.213-0.327,0.195-0.437,0.371c0.327,0.111,0.632,0.088,0.933-0.021
			c0.24-0.087,0.645-0.171,0.703-0.058c0.212,0.414,0.599,0.249,0.887,0.352c0.434,0.155,0.895,0.258,1.363,0.291
			c0.231,0.016,0.461,0.02,0.69-0.039c0.008-0.197-0.232-0.086-0.239-0.247c0.086-0.082,0.206-0.054,0.29-0.016
			c0.571,0.263,1.17,0.219,1.77,0.185c0.63-0.036,1.255-0.17,1.887-0.114c0.117,0.01,0.46-0.242,0.388,0.204
			c-0.003,0.018,0.201,0.001,0.307-0.031c0.367-0.11,0.742-0.303,1.121-0.193c1.374,0.4,2.836,0.119,4.199,0.569
			c0.137,0.045,0.272,0,0.406-0.028c0.714-0.151,1.439-0.2,2.167-0.205c0.204-0.001,0.403,0.019,0.59,0.14
			c-0.135,0.216-0.397,0.128-0.582,0.325c0.591,0.099,1.113-0.2,1.735-0.078c-0.233-0.263-0.548-0.212-0.716-0.442
			c0.24-0.134,0.48-0.103,0.787-0.11c-0.225,0.121-0.414-0.004-0.591,0.113c0.195,0.145,0.413,0.137,0.621,0.131
			c0.439-0.013,0.907,0.046,1.31-0.086c0.775-0.255,1.523-0.002,2.281-0.02c0.547-0.013,1.095-0.022,1.641-0.047
			c0.359-0.016,0.709-0.025,1.054,0.112c0.12,0.048,0.272,0.04,0.406,0.026c0.344-0.036,0.691-0.293,1.025,0.069
			c0.061,0.066,0.295,0.053,0.393-0.011c0.521-0.341,1.121-0.151,1.638-0.14c0.709,0.015,0.712-0.031,1.564-0.222
			c0.749-0.167,1.497-0.498,2.249-0.414c0.402,0.045,0.77,0.007,1.15-0.02c0.492-0.034,0.981-0.104,1.47-0.172
			c0.475-0.066,0.948-0.156,1.423-0.219c0.343-0.045,0.61-0.166,0.704-0.58c-0.509-0.049-0.955,0.334-1.508,0.186
			c0.582-0.267,1.163-0.323,1.753-0.373c0.583-0.049,1.172-0.074,1.751-0.245c-0.084-0.164-0.309-0.102-0.401-0.296
			c0.182,0.033,0.351,0.041,0.503,0.096c0.315,0.114,0.554,0.055,0.865-0.107c0.358-0.186,0.817-0.177,1.244-0.221
			c-0.586,0.388-1.208,0.683-1.928,0.808c0.176,0.033,0.388,0.145,0.522,0.084c0.397-0.178,0.801-0.144,1.208-0.136
			c0.284,0.005,0.377-0.248,0.563-0.371c0.349-0.232,0.736-0.41,1.118-0.588c0.93-0.43,1.869-0.839,2.797-1.275
			c0.232-0.109,0.449-0.262,0.639-0.48c0.06,0.197-0.186,0.316-0.088,0.505c0.239-0.165,0.322-0.475,0.582-0.618
			c-0.051,0.523-0.229,0.7-0.731,0.708c-0.266,0.004-0.507,0.118-0.659,0.293c-0.411,0.477-0.904,0.822-1.485,1.061
			c0.201,0.263,0.37,0.235,0.593,0.052c0.415-0.341,0.915-0.55,1.381-0.812c0.447-0.252,0.862-0.531,1.134-0.986
			c0.235-0.393,0.187-0.962-0.4-1.044c-0.21-0.03-0.389-0.206-0.635-0.062c-0.091,0.053-0.192-0.105-0.273-0.168
			c-0.242-0.189-0.379-0.518-0.671-0.608c-0.421-0.129-0.76-0.412-1.169-0.553c-0.292-0.1-0.391-0.425-0.665-0.568
			c-0.211-0.11-0.365-0.246-0.626-0.111c-0.132,0.068-0.323,0.036-0.486,0.026c-0.776-0.046-1.552-0.099-2.329-0.151
			c-0.342-0.023-0.677-0.074-0.973-0.265c-0.057-0.037-0.17-0.075-0.167-0.103c0.053-0.514-0.352-0.331-0.577-0.361
			c-0.638-0.087-1.288-0.077-1.907-0.309c-0.307-0.115-0.647-0.089-0.976-0.111c-1.225-0.084-2.433-0.38-3.675-0.298
			c0.184-0.014,0.367-0.027,0.615-0.046c-0.436-0.305-0.866-0.208-1.281-0.207c-0.024,0-0.056,0.01-0.071,0.027
			c-0.197,0.225-0.236,0.258-0.528,0.093c-0.221-0.126-0.436-0.132-0.669-0.131c-0.334,0.002-0.652,0.033-0.984-0.15
			c-0.259-0.143-0.613-0.103-0.931-0.099c-0.547,0.007-0.645,0.044-0.611,0.561c0.057,0.879-0.148,1.729-0.248,2.585
			c-0.068,0.58-0.493,1.071-0.815,1.571c-0.035,0.055-0.078,0.105-0.145,0.193c0.282,0.064,0.517-0.009,0.753-0.03
			c0.038-0.003,0.107-0.034,0.105-0.044c-0.086-0.523,0.326-0.257,0.497-0.281c0.359-0.051,0.705,0.13,1.137,0.043
			c-0.154,0.233-0.244,0.14-0.336,0.112c-0.401-0.119-0.725,0.039-1.012,0.299c-0.127,0.114-0.114,0.211,0.071,0.251
			c0.143,0.031,0.264-0.016,0.395-0.068c0.529-0.208,1.058-0.307,1.549,0.098c0.14,0.115,0.22,0.026,0.306-0.073
			c0.08-0.092,0.154-0.196,0.252-0.264c0.063-0.044,0.207-0.103,0.219,0.04c0.006,0.077,0.181,0.224-0.056,0.283
			c-0.153,0.038-0.292,0.128-0.43,0.259c0.964-0.095,1.925,0.083,2.948-0.171c-0.117,0.21-0.311,0.083-0.346,0.268
			c0.293,0.12,0.687,0.055,0.887,0.396c0.394-0.331,0.658,0.18,1.018,0.159c0.478-0.028,0.96,0.021,1.44,0.045
			c0.098,0.005,0.223-0.035,0.3,0.145c-0.31,0.11-0.654-0.063-0.955,0.11c0.22,0.287,0.44,0.387,0.748,0.144
			c0.135-0.107,0.31-0.173,0.477-0.226c0.246-0.077,0.494-0.204,0.53,0.268c0.016,0.21,0.374,0.309,0.57,0.216
			c0.348-0.165,0.476-0.016,0.587,0.283c-0.358,0.053-0.688,0.203-1.029-0.136c-0.215-0.213-0.609-0.179-0.866-0.063
			c-0.197,0.089-0.318,0.042-0.476,0.004c-0.626-0.15-1.246-0.339-1.881-0.426c-0.225-0.031-0.504-0.105-0.761,0.056
			c-0.149,0.093-0.316-0.005-0.397-0.216C91.007,80.629,91.179,80.757,91.263,80.537z M66.864,85.726
			c-0.115-0.009-0.23-0.019-0.345-0.028c0.001-0.02,0.001-0.039,0.002-0.059c0.271,0.016,0.571-0.038,0.806,0.062
			c0.823,0.35,1.722,0.253,2.566,0.487c0.435,0.12,0.81-0.273,1.241-0.412c-0.161-0.161-0.331-0.119-0.501-0.104
			c-0.533,0.047-1.066,0.091-1.6,0.131c-0.127,0.009-0.297,0.066-0.162-0.194c0.079-0.152-0.108-0.098-0.175-0.097
			c-0.535,0.012-1.069,0.038-1.603,0.05c-0.716,0.016-1.41-0.178-2.121-0.223c-0.937-0.06-1.86-0.008-2.78,0.212
			C63.728,86.036,65.305,85.639,66.864,85.726z M73.438,86.228c0.978-0.119,1.964,0.045,2.942-0.123
			c0.951-0.164,1.91-0.282,2.862-0.452c-1.07-0.063-2.126,0.09-3.186,0.162c-0.999,0.068-1.997,0.129-2.999,0.124
			c-0.85-0.004-1.661,0.28-2.505,0.387C71.523,86.578,72.479,86.345,73.438,86.228z M55.102,83.954
			c2.134,0.731,4.355,1.003,6.596,1.196C59.479,84.875,57.29,84.417,55.102,83.954z M92.65,84.166
			c-1.157,0.277-2.339,0.449-3.456,0.865C90.464,85.216,91.582,84.788,92.65,84.166z M66.587,86.416
			c0.251,0.124,0.51,0.074,0.771,0.087c0.498,0.023,1-0.235,1.509,0.172c0.214,0.171,0.69-0.032,1.026-0.183
			C68.789,86.513,67.7,86.185,66.587,86.416z M50.998,98.388c-0.389-0.241-0.594-0.77-1.155-0.765
			c0.412,0.384,0.814,0.76,1.217,1.136C50.979,98.681,51.138,98.474,50.998,98.388z M97.461,83.278
			c-0.81,0.059-1.611,0.165-2.366,0.486C95.888,83.618,96.701,83.571,97.461,83.278z M59.231,107.588
			c0.232-0.026,0.493-0.201,0.697,0.11c0.063,0.096,0.229,0.021,0.339-0.034c0.023-0.011,0.044-0.077,0.032-0.095
			c-0.059-0.088-0.151-0.113-0.252-0.101c-0.634,0.076-1.303-0.133-1.901,0.246C58.516,107.761,58.869,107.629,59.231,107.588z
			 M85.556,109.194c0.59-0.064,1.03-0.484,1.574-0.674C86.479,108.445,86.1,109.003,85.556,109.194z M82.43,85.782
			c0.567,0.054,1.016-0.04,1.412-0.38C83.405,85.533,82.884,85.384,82.43,85.782z M102.633,109.52
			c-0.348-0.11-0.698-0.286-1.097-0.056c0.388,0.194,0.87,0.059,1.16,0.476C102.549,109.804,102.894,109.603,102.633,109.52z
			 M79.518,85.85c0.601-0.083,1.219,0.004,1.931-0.191C80.709,85.585,80.1,85.59,79.518,85.85z M93.683,116.555
			c0.006,0.039,0.011,0.077,0.017,0.116c0.489-0.081,0.978-0.163,1.467-0.244C94.625,116.156,94.18,116.515,93.683,116.555z
			 M53.301,82.273c-0.043-0.121,0.232-0.254,0.002-0.345c-0.31-0.122-0.647-0.282-1.041,0.029
			C52.644,82.102,53.049,81.908,53.301,82.273z M84.462,85.614c0.68-0.107,1.36-0.214,2.04-0.321
			C85.805,85.292,85.117,85.347,84.462,85.614z M65.852,83.899c-0.415-0.139-0.84-0.056-1.347-0.073
			C65.005,84.046,65.429,83.96,65.852,83.899z M72.9,84.337c-0.436-0.146-0.873,0.03-1.309,0.009
			C72.026,84.655,72.463,84.343,72.9,84.337z M93.537,104.87c0.492-0.166,0.791-0.564,1.154-0.886
			c-0.026-0.025-0.051-0.051-0.077-0.076C94.255,104.229,93.896,104.549,93.537,104.87z M101.434,115.748
			c0.424,0.05,0.802-0.1,1.174-0.269C102.184,115.428,101.819,115.63,101.434,115.748z M82.558,110.303
			c0.475-0.014,0.935-0.088,1.313-0.359C83.433,110.064,82.996,110.184,82.558,110.303z M80.971,85.202
			c-0.468-0.186,0.064-0.211-0.015-0.364c-0.14,0.02-0.287-0.006-0.34,0.22c-0.041,0.178-0.321,0.01-0.389,0.231
			C80.465,85.261,80.693,85.235,80.971,85.202z M74.724,109.084c-0.405-0.106-0.737-0.057-1.068-0.003
			C73.987,109.196,74.319,109.275,74.724,109.084z M76.358,109.271c-0.292-0.077-0.576-0.054-0.856,0.024
			C75.799,109.427,76.078,109.352,76.358,109.271z M79.718,48.807c-0.107,0.31-0.418,0.519-0.206,0.872
			C79.354,49.34,79.978,49.218,79.718,48.807z M85.881,74.005c0.047,0.308,0.056,0.31,0.689,0.123
			C86.33,74.074,86.116,73.985,85.881,74.005z M83.167,116.355c0.401,0.011,0.687,0.082,1.059-0.102
			C83.829,116.182,83.548,116.164,83.167,116.355z"/>
		<path fill="#E5E5E5" d="M74.539,47.653c0.172-0.314,0.223-0.588,0.185-0.917c-0.19,0.147-0.338,0.24-0.361,0.522
			c-0.024,0.291-0.22,0.555-0.447,0.774c-0.199,0.192-0.375,0.409-0.37,0.735c0.166-0.029,0.19-0.131,0.223-0.213
			c0.04-0.099-0.026-0.311,0.169-0.241c0.154,0.055,0.308,0.215,0.224,0.422c-0.192,0.47-0.415,1.013-0.754,1.296
			c-0.385,0.322-0.335,0.643-0.388,0.996c-0.04,0.266-0.023,0.563-0.3,0.705c-0.307,0.157-0.235,0.512-0.445,0.755
			c-0.306,0.353-0.605,0.763-0.86,1.187c-0.248,0.411-0.274,0.84-0.418,1.252c-0.061,0.173-0.109,0.315-0.357,0.286
			c0.202,0.206,0.343-0.038,0.517-0.026c-0.014,0.222-0.028,0.434-0.041,0.644c-0.221,0.023-0.096-0.373-0.338-0.265
			c-0.2,0.089-0.233,0.307-0.214,0.499c0.082,0.835-0.524,1.432-0.738,2.164c-0.013,0.044-0.125,0.107-0.093,0.157
			c0.286,0.445-0.156,0.929,0.098,1.392c0.148,0.27,0.159,0.605-0.091,0.963c0.424-0.195,0.472,0.048,0.396,0.265
			c-0.098,0.283,0.003,0.636-0.314,0.855c-0.102,0.07,0.031,0.193,0.116,0.258c0.109,0.083,0.27,0.168,0.177,0.317
			c-0.082,0.13-0.214-0.069-0.386-0.01c0.116,0.477,0.099,0.993,0.398,1.436c0.052,0.077,0.108,0.166,0.119,0.255
			c0.048,0.389,0.067,0.779,0.392,1.07c0.162,0.146-0.049,0.361,0.102,0.569c0.163,0.225,0.546,0.363,0.428,0.76
			c-0.007,0.023,0.099,0.112,0.154,0.114c0.41,0.017,0.358,0.506,0.656,0.64c0.032,0.014-0.201,0.164,0.04,0.248
			c0.414,0.143,0.813,0.329,1.251,0.397c0.076,0.012,0.137-0.019,0.11-0.116c-0.021-0.077,0.081-0.172-0.064-0.238
			c-0.129-0.059-0.286-0.106-0.369-0.298c0.286,0.072,0.321-0.148,0.29-0.292c-0.039-0.179-0.045-0.443-0.328-0.463
			c-0.131-0.009-0.268-0.009-0.289-0.162c-0.025-0.179,0.186-0.058,0.193-0.1c0.021-0.141,0.257-0.297,0.055-0.418
			c-0.374-0.223-0.349-0.592-0.415-0.934c-0.045-0.23-0.048-0.233-0.255-0.091c-0.055,0.038-0.114,0.049-0.131-0.007
			c-0.052-0.173-0.059-0.347-0.322-0.361c-0.099-0.005-0.003-0.18,0.036-0.242c0.106-0.167,0.094-0.344,0.033-0.497
			c-0.209-0.518-0.262-1.043-0.219-1.6c0.021-0.273-0.155-0.558-0.153-0.836c0.004-0.59,0.006-1.188,0.195-1.759
			c0.054-0.163,0.076-0.307,0.021-0.476c-0.088-0.268,0.003-0.367,0.363-0.141c-0.272-0.593-0.006-0.987,0.199-1.414
			c0.241-0.501,0.221-1.069,0.3-1.61c0.084-0.579,0.229-1.129,0.646-1.568c0.165-0.174,0.086-0.391,0.115-0.588
			c0.015-0.103-0.045-0.282,0.076-0.291c0.373-0.026,0.298-0.354,0.425-0.546c0.047-0.071-0.031-0.372,0.24-0.165
			c0.049,0.038,0.113-0.095,0.146-0.168c0.206-0.456,0.411-0.911,0.648-1.438c-0.281,0.177-0.417,0.382-0.615,0.535
			c0.083-0.27,0.241-0.494,0.468-0.663c0.044-0.033,0.152-0.021,0.171-0.083c0.149-0.497,0.67-0.812,0.67-1.386
			c0-0.159,0.065-0.321,0.115-0.476c0.026-0.08,0.049-0.203,0.19-0.07c0.112,0.106,0.327-0.015,0.264-0.126
			c-0.144-0.251,0.037-0.422,0.103-0.593c0.197-0.505,0.252-1.108,0.846-1.393c0.097,0.177-0.096,0.309-0.111,0.552
			c0.218-0.255,0.278-0.472,0.347-0.718c0.091-0.323,0.154-0.666,0.287-0.969c0.153-0.345,0.277-0.735,0.208-1.047
			c-0.074-0.335,0.292-0.266,0.274-0.528c-0.034-0.506,0.157-1.004,0.363-1.451c0.276-0.6,0.388-1.229,0.535-1.857
			c0.022-0.095-0.014-0.337,0.216-0.112c0.079,0.077,0.121-0.074,0.125-0.139c0.015-0.246,0.018-0.494,0.017-0.741
			c-0.001-0.39,0.052-0.751,0.265-1.105c0.124-0.206,0.164-0.519,0.117-0.759c-0.108-0.551,0.038-1.087,0.013-1.628
			c-0.032-0.697-0.026-1.399-0.227-2.078c-0.071-0.241,0.109-0.432,0.123-0.674c0.05-0.846-0.147-1.628-0.405-2.411
			c-0.12-0.364-0.217-0.735-0.323-1.104c-0.081-0.283-0.167-0.523-0.423-0.748c-0.296-0.26-0.445-0.687-0.677-1.071
			c0.224-0.002,0.215,0.189,0.348,0.225c0.12-0.11,0.179-0.262,0.064-0.385c-0.791-0.843-1.088-1.964-1.664-2.927
			c-0.102-0.171-0.335-0.17-0.47-0.329c-0.192-0.225-0.408-0.393-0.461-0.734c-0.055-0.351-0.452-0.439-0.717-0.627
			c-0.167,0.395,0.012,0.581,0.352,0.716c0.269,0.106,0.27,0.262,0.149,0.579c-0.081,0.212,0.088,0.356,0.26,0.456
			c0.164,0.095,0.358,0.18,0.523,0.213c0.439,0.087,0.56,0.344,0.547,0.772c-0.238-0.125-0.383-0.321-0.552-0.493
			c-0.068-0.069-0.079-0.308-0.24-0.178c-0.169,0.137,0.047,0.224,0.118,0.307c0.357,0.417,0.699,0.846,0.987,1.315
			c0.08,0.131,0.258,0.237,0.02,0.426c-0.126,0.1,0.063,0.209,0.171,0.249c0.204,0.076,0.277,0.114,0.18,0.392
			c-0.078,0.223,0.104,0.536,0.175,0.829c-0.154,0.032-0.154-0.202-0.397-0.171c0.785,0.796,1.081,1.777,1.486,2.797
			c-0.299-0.05-0.364-0.211-0.466-0.327c-0.093-0.106-0.165-0.049-0.235,0.031c-0.081,0.092-0.017,0.155,0.053,0.199
			c0.068,0.043,0.148,0.07,0.226,0.092c0.192,0.055,0.277,0.148,0.189,0.36c-0.229,0.554-0.024,1.049,0.248,1.521
			c0.12,0.207,0.295,0.475,0.083,0.609c-0.157,0.099-0.341-0.203-0.467-0.374c-0.077-0.105-0.115-0.238-0.178-0.376
			c-0.086,0.325,0.003,0.617,0.068,0.905c0.024,0.105,0.042,0.318,0.251,0.141c0.073-0.062,0.103,0.014,0.109,0.055
			c0.106,0.778,0.402,1.554,0.044,2.341c-0.01,0.022-0.032,0.038-0.048,0.057c-0.128-0.024-0.074-0.197-0.193-0.239
			c-0.086,0.198,0.08,0.446-0.134,0.608c-0.03-0.053-0.06-0.106-0.12-0.212c-0.031,0.35,0.188,0.688-0.146,0.937
			c-0.054,0.041,0.041,0.068,0.105,0.096c0.223,0.095,0.219,0.403,0.082,0.417c-0.308,0.029-0.172,0.2-0.197,0.334
			c-0.089,0.481-0.033,0.987-0.277,1.442c-0.061,0.113-0.077,0.265-0.068,0.396c0.016,0.244,0.025,0.386-0.321,0.374
			c-0.272-0.01-0.311,0.316-0.248,0.514c0.115,0.368-0.012,0.771,0.208,1.121c0.121,0.192-0.125,0.264-0.201,0.274
			c-0.301,0.042-0.376,0.278-0.489,0.487c-0.019,0.035-0.007,0.106-0.03,0.116c-0.536,0.242-0.244,0.56-0.045,0.812
			c0.212,0.268,0.149,0.503,0.032,0.761c-0.15,0.332-0.428,0.613-0.391,1.017c0.007,0.074-0.011,0.141-0.111,0.119
			c-0.077-0.017-0.208-0.03-0.163-0.13c0.146-0.32-0.236-0.709,0.141-1.003c0.041-0.032-0.037-0.215-0.063-0.347
			c-0.399,0.475-0.711,0.966-0.764,1.572c-0.017,0.196-0.056,0.413,0.068,0.598c0.04,0.059,0.102,0.14,0.034,0.175
			C74.987,47.278,74.866,47.55,74.539,47.653z"/>
		<path fill="#E5E5E5" d="M73.159,73.455c-0.324-0.05-0.565-0.057-0.812-0.048c-0.899,0.034-1.756,0.361-2.68,0.287
			c-0.803-0.064-1.607,0.148-2.406,0.278c-0.656,0.107-1.305,0.262-2.053,0.305c0.314-0.228,0.662-0.093,0.947-0.358
			c-0.744,0.048-1.42,0.135-2.1,0.09c-0.299-0.02-0.574-0.244-0.891-0.101c-0.223,0.1-0.421,0.249-0.665,0.312
			c-0.157,0.04-0.306,0.059-0.429-0.041c-0.2-0.161-0.192-0.17-0.3-0.156c-1.753,0.233-3.491,0.548-5.217,0.932
			c-0.125,0.028-0.357,0.205-0.4-0.018c-0.031-0.16,0.244-0.141,0.391-0.181c0.039-0.011,0.083-0.002,0.123-0.011
			c0.629-0.134,1.268-0.236,1.854-0.532c-0.391,0.118-0.77-0.092-1.168,0c-0.713,0.166-1.333,0.528-1.975,0.844
			c-0.429,0.211-0.879,0.303-1.343,0.35c-0.219,0.022-0.422,0.007-0.11-0.334c-0.765,0.211-1.497,0.126-2.128,0.578
			c-0.38,0.272-0.872,0.303-1.355,0.109c0.59-0.288,1.168-0.642,1.809-0.669c1.049-0.045,2.038-0.319,3.038-0.577
			c0.287-0.074,0.49-0.305,0.808-0.325c1.71-0.109,3.4-0.409,5.11-0.535c0.434-0.032,0.881,0.011,1.304-0.139
			c0.249-0.088,0.473-0.247,0.77-0.087c0.119,0.064,0.322,0.036,0.472-0.065c0.455-0.306,0.926-0.317,1.391-0.04
			c-0.268,0.12-0.598,0.042-0.911,0.247c0.304,0.069,0.526-0.032,0.751-0.067c0.867-0.133,1.769-0.105,2.597-0.396
			c0.479-0.169,0.94-0.22,1.427-0.222c0.082,0,0.164-0.007,0.246-0.008c3.057-0.031,6.106-0.496,9.17-0.154
			c0.265,0.03,0.55-0.087,0.794,0.095c0.169,0.126,0.351,0.142,0.547,0.106c0.558-0.102,1.123-0.045,1.682-0.086
			c0.307-0.022,0.356,0.099,0.298,0.351c-0.021,0.094-0.06,0.189-0.054,0.282c0.018,0.308-0.12,0.401-0.418,0.384
			c-0.418-0.024-0.839-0.006-1.279-0.006c0.088,0.222,0.347,0.064,0.422,0.305c-0.99,0.086-1.959,0.177-2.933-0.02
			c0.746-0.02,1.459-0.161,2.178-0.503c-0.195-0.104-0.346-0.099-0.495-0.122c-0.616-0.095-1.19,0.167-1.79,0.204
			c-0.328,0.021-0.669,0.012-0.979,0.102c-0.364,0.106-0.661,0.181-1.07,0.044c-0.434-0.147-0.954-0.061-1.414-0.208
			c-0.339-0.109-0.623-0.048-0.881,0.17c-0.292,0.245-0.645,0.286-1,0.329c-0.123,0.015-0.167-0.011-0.137-0.079
			c0.11-0.249-0.166-0.077-0.182-0.211C72.166,73.691,72.658,73.699,73.159,73.455z M74.981,73.242
			c-0.19,0.016-0.423,0.176-0.545-0.167c-0.048-0.135-0.244,0.02-0.373,0.033c-0.168,0.018-0.331,0.083-0.487,0.185
			c0.836-0.043,1.682,0.205,2.491-0.187C75.706,73.153,75.345,73.212,74.981,73.242z"/>
		<path fill="#E5E5E5" d="M52.812,80.647c-0.081,0.119-0.273,0.277-0.251,0.395c0.037,0.197,0.25,0.372,0.451,0.391
			c0.137,0.012,0.354-0.1,0.41-0.264C53.471,81.027,53.023,80.645,52.812,80.647z"/>
		<path fill="#E5E5E5" d="M58.043,106.675c-0.354,0.027-0.672,0.051-0.991,0.076c0.436,0.092,0.869,0.086,1.415,0.009
			c-0.472-0.336-0.768-0.752-1.34-0.786C57.424,106.201,57.722,106.429,58.043,106.675z"/>
		<path fill="#E5E5E5" d="M90.144,107.822c0.885,0.225,1.775,0.422,2.691,0.466c-0.883-0.249-1.775-0.443-2.699-0.462
			C90.136,107.827,90.144,107.822,90.144,107.822z"/>
		<path fill="#E5E5E5" d="M45.757,78.801c0.284-0.726,0.915-1.098,1.519-1.521C46.442,77.49,45.776,78.148,45.757,78.801z"/>
		<path fill="#E5E5E5" d="M73.657,22.622c-0.137-0.27-0.325-0.485-0.714-0.642C73.155,22.33,73.433,22.447,73.657,22.622z"/>
		<path fill="#E5E5E5" d="M76.029,117.713c0.428,0.11,0.875,0.003,1.322,0C76.91,117.713,76.47,117.713,76.029,117.713z"/>
	</g>
</g>
</svg>
